<mxfile host="app.diagrams.net" agent="Mozilla/5.0 (Windows NT 10.0; Win64; x64) AppleWebKit/537.36 (KHTML, like Gecko) Chrome/130.0.0.0 Safari/537.36 Edg/130.0.0.0" version="24.8.0">
  <diagram name="Page-1" id="b-MHTXfGm2cB8WSVY2eB">
    <mxGraphModel dx="786" dy="465" grid="1" gridSize="10" guides="1" tooltips="1" connect="1" arrows="1" fold="1" page="1" pageScale="1" pageWidth="850" pageHeight="1100" math="0" shadow="0">
      <root>
        <mxCell id="0" />
        <mxCell id="1" parent="0" />
        <mxCell id="l5hXVpVtdUdoGjlruPQU-4" value="" style="edgeStyle=orthogonalEdgeStyle;rounded=0;orthogonalLoop=1;jettySize=auto;html=1;" edge="1" parent="1" source="l5hXVpVtdUdoGjlruPQU-2" target="l5hXVpVtdUdoGjlruPQU-3">
          <mxGeometry relative="1" as="geometry" />
        </mxCell>
        <mxCell id="l5hXVpVtdUdoGjlruPQU-2" value="&lt;font face=&quot;Algerian&quot; style=&quot;font-size: 24px;&quot;&gt;&lt;i&gt;&lt;b&gt;&lt;u&gt;Python&lt;/u&gt;&lt;/b&gt;&lt;/i&gt;&lt;/font&gt;" style="rounded=1;whiteSpace=wrap;html=1;" vertex="1" parent="1">
          <mxGeometry x="280" y="40" width="205" height="100" as="geometry" />
        </mxCell>
        <mxCell id="l5hXVpVtdUdoGjlruPQU-3" value="programming language" style="ellipse;shape=cloud;whiteSpace=wrap;html=1;rounded=1;" vertex="1" parent="1">
          <mxGeometry x="322.5" y="200" width="120" height="80" as="geometry" />
        </mxCell>
        <mxCell id="l5hXVpVtdUdoGjlruPQU-5" value="interesting&amp;nbsp;&lt;div&gt;language&lt;/div&gt;" style="rhombus;whiteSpace=wrap;html=1;" vertex="1" parent="1">
          <mxGeometry x="485" y="200" width="80" height="80" as="geometry" />
        </mxCell>
        <mxCell id="l5hXVpVtdUdoGjlruPQU-7" value="text editing" style="shape=document;whiteSpace=wrap;html=1;boundedLbl=1;" vertex="1" parent="1">
          <mxGeometry x="180" y="200" width="130" height="70" as="geometry" />
        </mxCell>
        <mxCell id="l5hXVpVtdUdoGjlruPQU-8" value="extensions" style="shape=process;whiteSpace=wrap;html=1;backgroundOutline=1;" vertex="1" parent="1">
          <mxGeometry x="580" y="205" width="120" height="60" as="geometry" />
        </mxCell>
      </root>
    </mxGraphModel>
  </diagram>
</mxfile>
